<svg xmlns="http://www.w3.org/2000/svg" viewBox="0 0 256 256" role="img" aria-label="Clipper">
  <defs>
    <linearGradient id="bg" x1="28" y1="20" x2="228" y2="236" gradientUnits="userSpaceOnUse">
      <stop offset="0" stop-color="#151f15"/>
      <stop offset="0.45" stop-color="#070b08"/>
      <stop offset="1" stop-color="#020402"/>
    </linearGradient>
    <linearGradient id="cut" x1="62" y1="58" x2="190" y2="204" gradientUnits="userSpaceOnUse">
      <stop offset="0" stop-color="#d7ff65"/>
      <stop offset="0.55" stop-color="#76f043"/>
      <stop offset="1" stop-color="#21b335"/>
    </linearGradient>
    <filter id="glow" x="-30%" y="-30%" width="160%" height="160%" color-interpolation-filters="sRGB">
      <feGaussianBlur stdDeviation="8" result="blur"/>
      <feMerge>
        <feMergeNode in="blur"/>
        <feMergeNode in="SourceGraphic"/>
      </feMerge>
    </filter>
  </defs>
  <rect width="256" height="256" rx="46" fill="url(#bg)"/>
  <path d="M26 170h204" stroke="#76f043" stroke-opacity="0.13" stroke-width="2"/>
  <path d="M26 86h204" stroke="#ffffff" stroke-opacity="0.06" stroke-width="2"/>
  <path d="M72 70h82c7 0 14 3 19 8l30 30c11 11 11 29 0 40l-30 30c-5 5-12 8-19 8H72c-12 0-22-10-22-22V92c0-12 10-22 22-22Z" fill="#0b120b" stroke="#76f043" stroke-opacity="0.5" stroke-width="8"/>
  <path d="M86 94v68l72-34-72-34Z" fill="url(#cut)" filter="url(#glow)"/>
  <path d="M169 82l31 31c8 8 8 22 0 30l-31 31" fill="none" stroke="url(#cut)" stroke-width="12" stroke-linecap="round" stroke-linejoin="round"/>
  <path d="M69 203h118" stroke="#76f043" stroke-width="12" stroke-linecap="round" stroke-opacity="0.86"/>
  <path d="M69 203h46" stroke="#d7ff65" stroke-width="12" stroke-linecap="round"/>
  <rect x="36" y="36" width="184" height="184" rx="34" fill="none" stroke="#ffffff" stroke-opacity="0.08" stroke-width="2"/>
</svg>
